<?xml version="1.0" encoding="UTF-8"?>
<svg version="1.1" xmlns="http://www.w3.org/2000/svg" width="355" height="268">
<path d="M0 0 C0.92783798 -0.01268417 1.85567596 -0.02536835 2.81163025 -0.03843689 C4.31168358 -0.03403343 4.31168358 -0.03403343 5.84204102 -0.02954102 C7.38626488 -0.03740379 7.38626488 -0.03740379 8.96168518 -0.04542542 C11.13964943 -0.051851 13.31764836 -0.05050171 15.49560547 -0.04199219 C18.82981152 -0.03348842 22.16230146 -0.06222734 25.49633789 -0.09399414 C27.61157175 -0.09560635 29.72680865 -0.09502824 31.84204102 -0.09204102 C32.84005234 -0.10327499 33.83806366 -0.11450897 34.86631775 -0.12608337 C41.7617017 -0.05660331 41.7617017 -0.05660331 44.93188477 2.20141602 C46.2459014 4.16157773 47.50857115 6.05064244 48.59985352 8.14233398 C48.98101318 8.86727051 49.36217285 9.59220703 49.75488281 10.33911133 C50.15618408 11.12366699 50.55748535 11.90822266 50.97094727 12.71655273 C51.62220581 13.97072998 51.62220581 13.97072998 52.28662109 15.25024414 C56.00296184 22.47006918 59.48238458 29.79686198 62.9453125 37.140625 C67.09302827 45.87800853 71.53237937 54.45303351 76.01028442 63.02371216 C80.38385544 71.39953535 84.63195888 79.81199598 88.53198242 88.4206543 C90.16556398 91.9843727 91.92885909 95.33442973 94.02905273 98.64892578 C94.47570282 99.35607224 94.92235291 100.06321869 95.38253784 100.79179382 C95.72108795 101.32383926 96.05963806 101.8558847 96.40844727 102.40405273 C96.66429029 101.89052309 96.92013332 101.37699345 97.18372917 100.8479023 C103.40536419 88.36048944 109.63146248 75.87531096 115.86239433 63.39253426 C118.87552628 57.35595189 121.88715293 51.3186273 124.89526367 45.27954102 C127.79640669 39.45521376 130.70170845 33.63297264 133.60959244 27.8120079 C134.72020471 25.58707829 135.82940489 23.36144324 136.93719101 21.13510513 C138.48495061 18.02514007 140.03764054 14.91768538 141.59155273 11.81079102 C142.05189911 10.88290771 142.51224548 9.95502441 142.98654175 8.99902344 C143.40999878 8.1548587 143.83345581 7.31069397 144.26974487 6.44094849 C144.63661848 5.70535769 145.00349209 4.96976688 145.38148308 4.21188545 C146.40844727 2.40405273 146.40844727 2.40405273 148.40844727 0.40405273 C152.82298525 -0.19100909 157.27114945 -0.15202939 161.72094727 -0.22094727 C163.57623047 -0.30795898 163.57623047 -0.30795898 165.46899414 -0.39672852 C166.66202148 -0.41348633 167.85504883 -0.43024414 169.08422852 -0.44750977 C170.17646729 -0.4766748 171.26870605 -0.50583984 172.39404297 -0.53588867 C177.61416909 1.09183349 179.50942007 6.70344808 181.95335293 11.32640457 C183.7518098 14.83688572 185.51751253 18.36291158 187.27490234 21.89404297 C187.95196911 23.24710167 188.62938258 24.59998693 189.30711365 25.95271301 C191.13740274 29.60846806 192.96271185 33.26668846 194.78700089 36.92544055 C196.70778223 40.77584252 198.63282602 44.62411262 200.55729675 48.47267151 C203.79206739 54.94314789 207.02374536 61.4151612 210.25341797 67.88818359 C213.96646646 75.32994848 217.68364519 82.76963791 221.40325624 90.20812458 C225.38643164 98.17379465 229.3665427 106.14099302 233.3457849 114.10862851 C234.48068302 116.38053726 235.61613544 118.65216822 236.75171852 120.92373466 C238.88806427 125.19784009 241.02219466 129.47304441 243.15380859 133.74951172 C243.48511359 134.41415054 243.81641858 135.07878937 244.15776312 135.76356876 C248.23218488 143.94463365 252.26614396 152.14117174 256.06816578 160.4532156 C257.82238864 164.27182165 259.78168133 167.90547352 261.90844727 171.52905273 C264.31714154 175.7930926 265.05520975 178.55333407 264.40844727 183.40405273 C259.49420088 186.27482216 254.52149152 185.81062091 248.97094727 185.84155273 C247.93389648 185.87442383 246.8968457 185.90729492 245.82836914 185.94116211 C244.82483398 185.94825195 243.82129883 185.9553418 242.78735352 185.96264648 C241.41945679 185.98282837 241.41945679 185.98282837 240.02392578 186.00341797 C236.43354172 185.18064257 234.63536268 183.20093449 232.40844727 180.40405273 C230.55999508 177.37695164 229.00743304 174.22467905 227.45043945 171.03979492 C226.98314423 170.10432831 226.515849 169.16886169 226.03439331 168.20504761 C224.49861049 165.12492969 222.97702143 162.03802436 221.45532227 158.95092773 C220.38962449 156.80766201 219.32298094 154.66486631 218.25543213 152.52252197 C215.45236733 146.89167275 212.66102204 141.25509646 209.87243652 135.61706543 C205.93117755 127.6539876 201.97394347 119.69883294 198.01861572 111.74273682 C195.91228992 107.50576872 193.81036032 103.26666342 191.71185303 99.02581787 C190.7575385 97.10078402 189.80321371 95.17575525 188.84887695 93.25073242 C188.411492 92.36451202 187.97410706 91.47829163 187.52346802 90.56521606 C187.12543976 89.76330841 186.7274115 88.96140076 186.31732178 88.13519287 C185.97076916 87.43467175 185.62421654 86.73415062 185.26716232 86.01240158 C184.5123051 84.41100008 184.5123051 84.41100008 183.40844727 83.40405273 C182.99336914 84.24581055 182.57829102 85.08756836 182.15063477 85.95483398 C178.42888428 93.46473123 174.62520366 100.92702258 170.74278259 108.35522461 C165.37804467 118.6279759 160.10941868 128.93904792 154.99860382 139.34046364 C154.09374177 141.18184173 153.18700068 143.02228305 152.27972412 144.86247253 C148.61751006 152.29285757 148.61751006 152.29285757 144.97949219 159.73510742 C143.75766127 162.24416308 142.52851048 164.74935639 141.29078674 167.25061035 C140.14430639 169.56778695 139.00842053 171.8902456 137.88487244 174.21862793 C137.11234886 175.76930969 137.11234886 175.76930969 136.32421875 177.35131836 C135.88013168 178.25805298 135.43604462 179.1647876 134.97850037 180.09899902 C133.08739295 182.87540459 131.44243684 183.99310633 128.40844727 185.40405273 C126.17041016 185.79173279 126.17041016 185.79173279 123.88110352 185.80810547 C123.01670654 185.82078964 122.15230957 185.83347382 121.26171875 185.84654236 C119.88028687 185.8421389 119.88028687 185.8421389 118.47094727 185.83764648 C117.51325439 185.84288834 116.55556152 185.84813019 115.56884766 185.85353088 C113.54826831 185.8599414 111.52765159 185.85862667 109.50708008 185.85009766 C106.41883874 185.84158139 103.33244381 185.87037298 100.24438477 185.90209961 C98.27823949 185.90371163 96.31209094 185.90313407 94.34594727 185.90014648 C93.42499268 185.91138046 92.50403809 185.92261444 91.55517578 185.93418884 C87.4397575 185.88952587 85.03111716 185.77257686 81.43261719 183.64282227 C79.48162348 181.48498699 78.26355554 179.73182182 77.08422852 177.08764648 C76.69428711 176.23879883 76.3043457 175.38995117 75.90258789 174.51538086 C75.51264648 173.63301758 75.12270508 172.7506543 74.72094727 171.84155273 C71.7542862 165.24266665 68.58769971 158.79833129 65.18286133 152.41723633 C57.91173103 138.68553671 50.99135788 124.77459367 44.02954102 110.88452148 C43.30458341 109.43866686 42.57960316 107.99282359 41.85460091 106.54699135 C38.45731688 99.77133797 35.06188766 92.99475922 31.66880077 86.21700305 C27.77156163 78.43236063 23.867663 70.65110383 19.95831627 62.87253493 C16.91726225 56.82056415 13.88233882 50.76554421 10.85200745 44.70819741 C9.04906994 41.10466771 7.24353466 37.50249759 5.43145561 33.90355492 C3.73432704 30.53255305 2.04483347 27.15783462 0.36111641 23.78011513 C-0.25650232 22.54438226 -0.87685001 21.31000889 -1.50015259 20.07713318 C-2.35184472 18.39146876 -3.19266953 16.70032677 -4.03297424 15.00895691 C-4.50577096 14.06575183 -4.97856768 13.12254675 -5.46569157 12.1507597 C-6.67538608 9.19952872 -7.28396051 6.57573932 -7.59155273 3.40405273 C-5.61275868 0.22267173 -3.58891928 0.02375683 0 0 Z M6.40844727 10.40405273 C7.81604612 14.6268493 9.15496244 18.14516604 11.11660767 22.06088257 C11.66627701 23.16297058 12.21594635 24.26505859 12.78227234 25.40054321 C13.38887202 26.6066659 13.99554878 27.81274982 14.60229492 29.01879883 C15.24331971 30.30028379 15.88399148 31.58194539 16.52433777 32.86376953 C18.25818974 36.33204598 19.99695477 39.79783808 21.73662615 43.26319838 C23.55591396 46.88924977 25.37065434 50.51757556 27.18588257 54.1456604 C30.62149956 61.01068459 34.06118915 67.87365971 37.50235403 74.73590434 C41.42084631 82.55051432 45.33478171 90.36740335 49.24833989 98.1844852 C57.29664854 114.26021185 65.35066268 130.33307388 73.40844727 146.40405273 C78.34326728 141.64218008 80.76406633 136.22629148 83.72094727 130.09155273 C84.28362305 128.97586914 84.84629883 127.86018555 85.42602539 126.71069336 C86.21589844 125.07970703 86.21589844 125.07970703 87.02172852 123.41577148 C87.50424072 122.4305249 87.98675293 121.44527832 88.48388672 120.43017578 C90.74376436 113.03350734 87.010703 106.91285398 83.70507812 100.4296875 C83.21725357 99.45330826 82.72942902 98.47692902 82.2268219 97.47096252 C80.61841795 94.25762693 78.99597932 91.05160154 77.37329102 87.84545898 C76.25283533 85.61387681 75.13326426 83.38185028 74.01454163 81.1493988 C71.37282766 75.88308518 68.72225318 70.62130926 66.06729847 65.36165994 C62.74675335 58.78206779 59.44010052 52.19551637 56.13305664 45.60913086 C50.2359517 33.86849238 44.3251529 22.13482567 38.40844727 10.40405273 C27.84844727 10.40405273 17.28844727 10.40405273 6.40844727 10.40405273 Z M153.40844727 10.40405273 C143.87827642 29.34764376 134.35953167 48.29693601 124.85439301 67.2531004 C120.44082421 76.0544457 116.02352191 84.85387962 111.59741211 93.64892578 C107.74007049 101.31380613 103.8897496 108.98216453 100.04785299 116.65479881 C98.01295376 120.71807341 95.97455888 124.77950772 93.92774963 128.83679771 C92.00175814 132.65487124 90.08518151 136.47752154 88.17575264 140.30390358 C87.47296415 141.70810381 86.76673998 143.11059053 86.05685234 144.51121521 C85.08853048 146.42300243 84.13273075 148.34055667 83.17980957 150.26005554 C82.37231892 151.8681234 82.37231892 151.8681234 81.54851532 153.50867748 C80.12094473 157.13420891 79.71907336 159.81295313 81.28344727 163.42358398 C81.84032227 164.31110352 81.84032227 164.31110352 82.40844727 165.21655273 C83.06844727 166.26842773 83.72844727 167.32030273 84.40844727 168.40405273 C87.45038082 165.79037544 88.91375907 162.76553818 90.69242859 159.20358276 C91.0094254 158.57285799 91.3264222 157.94213322 91.65302497 157.29229558 C92.71353691 155.17855345 93.76541689 153.06063363 94.81738281 150.94262695 C95.57592678 149.42632985 96.33499325 147.91029404 97.09454346 146.39450073 C99.15555118 142.27762149 101.20906809 138.15704677 103.2611692 134.03572226 C105.40718515 129.72866757 107.55967441 125.42485022 109.71138 121.12063599 C113.32251112 113.89468091 116.9291235 106.66648547 120.53271484 99.43676758 C125.16448109 90.14433011 129.80367484 80.85562168 134.44522381 71.56806755 C138.42935723 63.59582707 142.41007847 55.62188384 146.3902514 47.6476655 C147.67318365 45.07769531 148.95658927 42.50796193 150.24005699 39.93825912 C152.25215194 35.90918988 154.26212279 31.87906794 156.27041626 27.84810257 C157.00988848 26.36462114 157.75004481 24.88148051 158.4909153 23.3986969 C159.49761054 21.38357092 160.50184821 19.36723986 161.50541687 17.35055542 C162.3513089 15.65430936 162.3513089 15.65430936 163.21428967 13.9237957 C164.47982404 11.71817514 164.47982404 11.71817514 164.40844727 10.40405273 C160.77844727 10.40405273 157.14844727 10.40405273 153.40844727 10.40405273 Z M172.40844727 17.40405273 C171.72782227 18.41467773 171.04719727 19.42530273 170.34594727 20.46655273 C169.9630957 21.0350293 169.58024414 21.60350586 169.18579102 22.18920898 C167.68884291 26.45438274 169.03689929 30.5260695 170.74661255 34.56619263 C171.34674164 35.70780853 171.94687073 36.84942444 172.56518555 38.02563477 C173.30044206 39.44797784 174.03458122 40.8708988 174.7678833 42.29425049 C175.18418251 43.09587868 175.60048172 43.89750687 176.02939606 44.72342682 C178.45294403 49.43436537 180.80095713 54.18303683 183.1589601 58.92703032 C184.72609265 62.07816442 186.2977203 65.22705566 187.86886597 68.37619019 C188.53274456 69.70722302 189.19662267 71.0382561 189.86050034 72.3692894 C194.10621614 80.8805219 198.35537441 89.39003699 202.60441399 97.89961052 C206.33193855 105.36502394 210.05792098 112.83120015 213.78051758 120.29907227 C217.04954257 126.85702518 220.32135672 133.4135775 223.59655678 139.96844876 C225.32449184 143.42692438 227.05101371 146.88608917 228.77416611 150.34695053 C230.38776411 153.58767805 232.00506883 156.82652753 233.62528801 160.06394958 C234.50302133 161.8202311 235.37676901 163.57850272 236.25041199 165.33682251 C237.03233162 166.89653778 237.03233162 166.89653778 237.83004761 168.48776245 C238.28239714 169.3943051 238.73474667 170.30084774 239.20080376 171.23486137 C240.3451607 173.52334087 240.3451607 173.52334087 242.40844727 175.40405273 C244.61917704 175.64659087 244.61917704 175.64659087 247.03344727 175.52905273 C247.85071289 175.51100586 248.66797852 175.49295898 249.51000977 175.47436523 C250.13649414 175.45116211 250.76297852 175.42795898 251.40844727 175.40405273 C250.81139173 171.73971777 249.79549283 168.81096099 248.12695312 165.50048828 C247.65233139 164.55147141 247.17770966 163.60245453 246.68870544 162.62467957 C246.17211868 161.6069899 245.65553192 160.58930023 245.12329102 159.54077148 C244.58877823 158.47599075 244.05426544 157.41121002 243.5035553 156.31416321 C241.78997091 152.90376572 240.06812985 149.49761506 238.34594727 146.09155273 C237.21323139 143.84118067 236.08106416 141.59053236 234.94946289 139.33959961 C232.76309694 134.99237567 230.57384903 130.6466252 228.38183594 126.30224609 C223.45849102 116.54177279 218.57574222 106.76129077 213.72094727 96.96655273 C210.77909816 91.04951535 207.7357354 85.18875182 204.66967773 79.33520508 C199.38300175 69.24052599 194.28413323 59.09963417 189.46313477 48.77514648 C184.48510671 38.12651571 179.14669003 27.66333526 173.40844727 17.40405273 C173.07844727 17.40405273 172.74844727 17.40405273 172.40844727 17.40405273 Z M161.40844727 39.40405273 C156.27569974 49.05798638 151.20513926 58.73408574 146.34594727 68.52905273 C142.93643124 75.40131689 139.44681391 82.21982954 135.80273438 88.97094727 C133.13925421 93.93224226 130.6161449 98.96053763 128.10641479 104.00073242 C125.42450398 109.38259498 122.72094228 114.75333098 120.00928688 120.1202507 C117.34005071 125.40360165 114.67726479 130.69017653 112.01766014 135.97838211 C110.27805351 139.43651684 108.53537641 142.89304063 106.78637695 146.34643555 C105.0713904 149.73301421 103.36420806 153.12342102 101.66239929 156.51663971 C101.01770345 157.79866382 100.37020145 159.0792809 99.71980286 160.35842133 C98.8175881 162.13388117 97.92623342 163.91484711 97.03540039 165.69604492 C96.27217468 167.20917267 96.27217468 167.20917267 95.49353027 168.75286865 C94.15592416 171.54360205 94.15592416 171.54360205 94.40844727 175.40405273 C98.58909199 175.60249502 102.76721725 175.74726769 106.95117188 175.84350586 C108.37255607 175.88363145 109.79361213 175.93815186 111.21386719 176.00756836 C119.20505202 176.70413401 119.20505202 176.70413401 126.31420898 173.91943359 C127.67133366 171.80239306 128.53586176 169.76049891 129.40844727 167.40405273 C130.18205787 165.8779405 130.96890208 164.35847533 131.76782227 162.84545898 C132.56823756 161.2208964 133.36498227 159.59452126 134.15844727 157.96655273 C137.28845201 151.61721463 140.486169 145.32219475 143.84594727 139.09155273 C147.68527172 131.93007502 151.20814035 124.64177271 154.66308594 117.28808594 C157.71468197 110.83329349 160.89228362 104.45774303 164.14672852 98.10327148 C164.98096916 96.46639771 165.81503423 94.82943445 166.64892578 93.19238281 C167.89759509 90.74164653 169.15076602 88.29382908 170.41940308 85.85336304 C171.61050862 83.56131274 172.78428543 81.26109271 173.95532227 78.95874023 C174.31930618 78.2700737 174.6832901 77.58140717 175.05830383 76.87187195 C176.50980847 73.98546451 177.44252472 71.91873661 177.2265625 68.65698242 C175.9829181 65.23222845 174.38789755 62.01146001 172.72094727 58.77905273 C172.36516602 58.07844727 172.00938477 57.3778418 171.64282227 56.65600586 C168.67606424 50.84477553 165.59354608 45.09862334 162.40844727 39.40405273 C162.07844727 39.40405273 161.74844727 39.40405273 161.40844727 39.40405273 Z " fill="#131313" transform="translate(42.591552734375,32.595947265625)"/>
</svg>
