<svg enable-background="new 0 0 1024 1024" height="1024" image-rendering="optimizeSpeed" viewBox="0 0 1024 1024" width="1024" xmlns="http://www.w3.org/2000/svg"><path d="m969.65 351.3q-8.6-20.85-19.4-40.85c-4.05-7.55-8.35-15.05-12.9-22.4-19.55-31.7-43.4-61.65-71.55-89.8-92.15-92.15-203.45-138.25-333.8-138.25s-241.6 46.1-333.75 138.25-138.25 203.4-138.25 333.75 46.1 241.65 138.25 333.8 203.4 138.2 333.75 138.2 241.65-46.05 333.8-138.2c50.75-50.8 87.55-107.4 110.35-169.75 18.55-50.85 27.85-105.5 27.85-164.05 0-44.9-5.45-87.55-16.4-127.95-1.25-4.55-2.55-9.1-3.9-13.6-4.1-13.3-8.8-26.35-14.05-39.15z" fill-opacity=".098039"/><path d="m966.1 378.45c-1-3.4-2-6.85-3.15-10.5-1.6-5.15-3.4-10.5-5.3-15.85-6.45-18.25-14.15-36.05-23.15-53.65-3.8-7.4-7.95-14.95-12.3-22.4-20.3-34.5-45.8-67.2-76.35-97.75-72.6-72.6-157.15-116.65-253.65-132.05-16.25-2.6-32.8-4.4-50.05-5.35-9.7-.55-19.85-.85-30.1-.85-9.35 0-18.6.25-27.9.75-118.35 6.1-220.3 51.95-305.85 137.5q-138.25 138.25-138.25 333.75c0 130.35 46.1 241.65 138.25 333.8 56.7 56.65 120.55 95.9 191.1 117.55 36.75 11.25 74.8 17.85 114.75 19.95h.4c8.5.45 16.6.7 24.5.7h3c10.3 0 20.5-.3 30.1-.8 2.5-.15 4.75-.3 6.95-.45 20.2-1.45 39.9-4.05 58.7-7.7 7.95-1.55 15.8-3.3 23.4-5.15 80.8-20.3 152.15-61.6 214.65-124.1 48.6-48.6 84.4-102.5 107.35-161.8 18.45-47.65 28.65-98.8 30.55-153.5.2-6.05.3-12.25.3-18.5 0-.65 0-1.35 0-2 0-.35 0-.65 0-1-.2-40.65-4.95-79.5-14.3-117-1.1-4.35-2.35-9-3.65-13.6z" fill="#fd7900"/><path d="m984.05 510.05c0-.35 0-.65 0-1-.05-7.2-.25-14.3-.55-21.55l-201.45-201.45-532 448 249.85 249.85c3.2.1 6.2.15 9.15.15q1.5 0 3 0c10.3 0 20.5-.3 30.1-.8 2.5-.15 4.75-.3 6.95-.45 20.2-1.45 39.9-4.05 58.7-7.7 7.95-1.55 15.8-3.3 23.4-5.15 80.8-20.3 152.15-61.6 214.65-124.1 48.6-48.6 84.4-102.5 107.35-161.8 18.45-47.65 28.65-98.8 30.55-153.5.2-6.05.3-12.25.3-18.5 0-.65 0-1.35 0-2z" fill-opacity=".2"/><path d="m669.209 240.952c-71.738 0-133.171 45.976-155.763 108.598-21.798-59.055-83.231-103.049-155.366-103.049q-67.774 0-115.731 45.183-47.958 45.579-47.958 109.39c0 35.671 11.098 66.982 33.689 94.33-24.573 30.518-36.859 66.585-36.859 108.201 0 95.518 74.512 172.805 166.067 172.805 69.36 0 128.811-44.39 154.573-108.201 23.78 67.774 82.835 114.939 152.592 114.939 89.176 0 161.707-77.287 161.707-172.805 0-34.482-9.512-66.586-26.159-95.122 23.385-30.122 35.275-65 35.275-105.031 0-93.536-74.512-169.238-166.067-169.238zm-300.031 106.22c33.293 0 60.244 26.158 60.244 58.262v57.47l-60.244.396c-32.896 0-59.848-26.159-59.848-57.866 0-32.104 26.952-58.262 59.848-58.262z" fill="#fff"/><g fill="#fb7922"><path d="m612.135 453.788c-4.359 3.171-26.158 11.097-74.908 11.097-9.512-.396-18.232-.396-26.159-.396-1.189 0-1.981 0-2.378 0-39.238-.793-78.079-1.585-117.713 13.872-24.177 9.512-48.354 28.537-62.226 54.299-14.268 25.762-19.421 55.488-19.421 89.969-.396 27.744 21.799 50.336 49.543 50.732 28.14.396 50.732-21.799 51.128-49.543v-1.189c0-24.177 3.964-36.463 6.738-42.012 3.171-5.152 3.963-5.549 11.098-8.323 14.268-5.945 55.884-6.738 109.39-6.738 32.5 0 57.866-1.982 76.097-5.549 2.775-.396 5.946-1.189 8.72-1.981v57.469c-.396 27.744 21.799 50.732 49.543 51.128 27.744.397 50.731-21.799 51.128-49.542v-60.641c.396-13.872-4.36-25.762-14.269-35.67-3.963-4.36-8.323-7.531-13.079-9.909 21.006-29.329 27.348-67.774 27.348-108.201 0-27.744-22.195-50.336-49.939-50.732h-1.586c-27.744.396-49.542 22.988-49.146 50.732 0 39.238-5.945 47.561-9.909 51.128z"/><path d="m369.178 347.172c-32.896 0-59.848 26.158-59.848 58.262 0 31.707 26.952 57.866 59.848 57.866l60.244-.396v-57.47c0-32.104-26.951-58.262-60.244-58.262z"/></g></svg>